<?xml version="1.0" standalone="no"?><!DOCTYPE svg PUBLIC "-//W3C//DTD SVG 1.1//EN" "http://www.w3.org/Graphics/SVG/1.1/DTD/svg11.dtd"><svg t="1555140164672" class="icon" style="" viewBox="0 0 1024 1024" version="1.1" xmlns="http://www.w3.org/2000/svg" p-id="10454" xmlns:xlink="http://www.w3.org/1999/xlink" width="200" height="200"><defs><style type="text/css"></style></defs><path d="M988.16 942.08h-143.36v-384c0-183.296-149.504-332.8-332.8-332.8s-332.8 149.504-332.8 332.8v384H42.496c-16.896 0-30.72 13.824-30.72 30.72s13.824 30.72 30.72 30.72H988.16c16.896 0 30.72-13.824 30.72-30.72s-13.824-30.72-30.72-30.72zM240.64 558.08c0-149.504 121.856-271.36 271.36-271.36s271.36 121.856 271.36 271.36v384H435.2v-363.52c0-16.896-13.824-30.72-30.72-30.72s-30.72 13.824-30.72 30.72v363.52H240.64v-384z" fill="#646464" p-id="10455"></path><path d="M865.28 522.24c0 16.896 13.824 30.72 30.72 30.72h87.04c16.896 0 30.72-13.824 30.72-30.72s-13.824-30.72-30.72-30.72h-87.04c-16.896 0-30.72 13.824-30.72 30.72zM784.384 283.136c7.68 0 15.872-3.072 22.016-9.216l61.44-61.44c11.776-12.288 11.776-31.744 0-43.52-12.288-11.776-31.744-11.776-43.52 0l-61.44 61.44c-11.776 12.288-11.776 31.744 0 43.52 5.632 6.144 13.824 9.216 21.504 9.216zM514.048 169.472c16.896 0 30.72-13.824 30.72-30.72v-87.04c0-16.896-13.824-30.72-30.72-30.72s-30.72 13.824-30.72 30.72v87.04c0 16.896 13.824 30.72 30.72 30.72zM224.256 269.824c5.632 6.144 13.824 9.216 21.504 9.216s15.872-3.072 22.016-9.216c11.776-12.288 11.776-31.744 0-43.52l-61.44-61.44c-12.288-11.776-31.744-11.776-43.52 0-11.776 12.288-11.776 31.744 0 43.52l61.44 61.44zM43.008 547.328h87.04c16.896 0 30.72-13.824 30.72-30.72s-13.824-30.72-30.72-30.72h-87.04c-16.896 0-30.72 13.824-30.72 30.72s13.824 30.72 30.72 30.72z" fill="#646464" p-id="10456"></path></svg>