<?xml version="1.0" standalone="no"?><!DOCTYPE svg PUBLIC "-//W3C//DTD SVG 1.1//EN" "http://www.w3.org/Graphics/SVG/1.1/DTD/svg11.dtd"><svg t="1555139776114" class="icon" style="" viewBox="0 0 1024 1024" version="1.1" xmlns="http://www.w3.org/2000/svg" p-id="8055" xmlns:xlink="http://www.w3.org/1999/xlink" width="200" height="200"><defs><style type="text/css"></style></defs><path d="M512 64C264.64 64 64 264.576 64 512c0 247.36 200.64 448 448 448 247.424 0 448-200.64 448-448C960 264.576 759.424 64 512 64zM511.936 896.768C299.52 896.768 127.232 724.48 127.232 512S299.52 127.232 511.936 127.232c170.304 0 314.432 110.72 365.056 264.064l-86.656 23.04-0.384-1.152c-2.624-7.488-5.248-15.104-9.6-24.128-3.2-7.168-5.376-12.032-8.256-16.768L769.28 367.168c-2.368-4.48-4.928-9.216-8.256-13.632l-2.56-3.968c-3.456-5.248-7.04-10.752-11.52-16l-1.792-2.304-5.696-7.232c-2.048-2.432-4.032-4.544-6.08-6.656l-3.52-3.84c-12.8-14.08-28.544-27.648-46.912-40.32-7.424-5.312-15.872-10.368-25.088-15.296-1.408-24.064-20.928-43.328-45.44-43.328-13.056 0-24.768 5.632-33.152 14.464C569.664 227.008 560.064 225.088 549.76 223.872c-10.496-1.472-20.736-1.664-31.04-1.92L512.768 221.824 512.384 221.824c-0.256 0-0.576 0-0.832 0l-18.56 1.216L483.904 223.552 477.184 224.576 473.728 225.152 455.488 228.096 436.672 233.024 428.032 235.264 418.176 238.784l-8.32 3.072L401.472 244.992 384.32 253.248C379.584 255.488 377.6 256.448 375.744 257.472L367.936 262.272l-5.12 3.072C359.36 267.328 356.032 269.312 352.832 271.424L338.688 281.984l5.056 12.48-7.68-10.56C334.528 285.056 332.992 286.208 331.52 287.424L324.864 293.376 313.92 303.232 305.92 311.744 301.376 316.736C296.832 321.6 293.184 325.504 290.24 329.856L286.4 334.912C281.408 341.504 276.544 348.032 272.768 354.88L265.856 366.336c-2.048 3.712-3.648 6.912-5.12 10.048L259.392 379.392 256.768 384.768 253.824 390.912 251.2 398.08 249.216 403.776 246.72 410.24 245.248 414.336C244.224 417.344 243.648 419.84 243.072 422.272L242.112 425.856 240.384 432.832C239.04 437.76 237.888 442.432 237.376 446.976L236.352 454.144l-1.344 8.96C234.24 467.712 234.112 472.256 233.984 476.224L233.6 486.912 233.344 495.808C233.024 502.912 238.528 508.992 245.632 509.44L246.4 509.44c6.848 0 12.544-5.312 13.056-12.16l0.512-8.32 0.256-3.776 0.448-5.568C260.992 473.984 261.12 471.04 261.888 467.968l2.24-12.608 0.768-4.224c0.576-3.712 1.6-7.104 2.752-10.688l2.048-7.104c1.344-4.864 1.856-7.04 2.688-9.216l4.096-10.24c1.344-3.52 2.816-7.104 4.352-10.816l3.264-6.144 2.176-4.096L288.576 388.48c1.216-2.304 2.304-4.608 3.712-6.848l5.568-8.32C297.856 373.12 299.52 370.688 299.648 370.496c3.776-6.208 8.512-11.968 13.376-17.92l2.944-3.648C318.656 345.28 321.472 342.464 324.48 339.52l11.2-11.52c3.328-2.624 7.424-6.144 11.584-9.728l5.888-4.736c1.344-1.28 2.752-2.112 4.16-3.008l14.656-10.24c2.496-1.472 5.248-3.072 8.064-4.608L385.92 292.352l7.168-4.032 3.392-1.472L400 285.312l6.272-2.816L415.424 278.4l15.232-5.056 8-2.56 7.296-1.6 16.896-3.84 16.192-2.048C483.392 262.656 485.12 262.4 486.784 262.336l8.448-0.32 17.024-0.576L516.992 261.76c9.344 0.512 18.624 0.96 27.2 2.496 8.512 1.344 16.256 3.2 24 4.992 4.16 21.12 21.952 37.376 44.224 37.376 9.6 0 18.048-3.648 25.408-8.704 6.464 3.84 12.608 7.68 17.856 11.712 15.36 11.456 28.096 23.104 38.016 34.816l3.008 3.328c1.536 1.792 3.136 3.52 4.48 5.376l4.864 6.528 2.112 2.88c3.072 3.904 5.312 7.616 7.488 11.264l3.84 6.144c2.176 3.264 3.776 6.464 5.184 9.472 1.088 2.112 2.048 4.16 3.2 6.208 2.048 3.712 3.456 7.168 4.672 10.368 0.128 0.192 1.28 3.008 1.344 3.136 2.944 6.656 4.672 12.288 6.016 16.64l0.64 1.984-77.184 20.544 0 0c-2.432-5.696-6.272-12.544-10.944-20.096-4.352-6.784-10.24-15.36-18.496-24C626.752 396.224 617.728 388.416 607.488 381.312 598.208 374.592 586.816 368.576 572.992 363.2 560.64 358.272 547.264 355.136 532.288 353.6 526.528 352.896 521.344 352.896 515.584 352.896L511.872 352.832 511.744 352.832c-0.448 0-0.896 0.064-0.896 0.064L504.32 353.344C499.264 353.6 494.272 353.984 489.344 355.2 487.296 355.456 485.376 356.16 483.392 356.544 475.648 349.696 465.664 345.216 454.528 345.216c-24.192 0-43.648 19.328-43.648 43.584 0 1.344 0.64 2.496 0.768 3.904C409.664 394.368 407.744 396.032 405.76 397.952L401.984 401.6 397.248 406.976C394.368 410.24 391.616 413.504 389.248 417.088 385.088 422.976 382.144 427.136 379.904 431.616L378.176 434.496 376.32 437.76 374.208 442.368 372.864 445.376 369.92 451.904 368.256 456.704C365.824 464 364.352 468.48 363.584 473.024 361.92 479.104 361.152 485.696 360.448 491.264 359.744 497.28 359.68 500.608 359.68 503.488 359.616 503.744 359.552 506.944 359.552 507.264L359.424 511.488C359.168 518.4 364.352 524.16 371.264 524.736c0.32 0 0.704 0 1.024 0 6.4 0 11.904-4.736 12.672-11.264l0.448-5.184L385.664 504.96C385.856 502.784 385.984 500.16 386.56 497.28c1.024-5.76 1.92-11.328 3.968-17.408 1.088-3.968 2.304-7.104 3.712-10.496L395.904 465.28 398.336 460.16 401.344 454.4l2.624-4.352 2.048-3.2c1.92-3.2 4.096-5.888 6.336-8.704l2.112-2.56c1.856-2.496 3.904-4.416 5.888-6.528L424.96 424.384l2.56-2.112c7.488 6.016 16.64 10.112 27.008 10.112 22.72 0 40.896-17.6 42.816-39.936 2.304-0.192 4.608-0.448 6.528-0.448 0.384 0 0.832 0 0.832 0l0.512 0c2.496 0 4.928 0 7.424-0.192l1.536 0.256c4.224 0.32 8.96 0.64 12.736 1.344 11.136 1.792 21.184 4.864 29.632 8.832 10.112 4.736 18.048 9.536 24.384 14.72C588.224 422.848 594.304 428.8 598.912 434.688c5.44 6.336 9.28 12.608 12.288 17.984C612.864 455.68 613.888 458.368 615.104 461.12L546.816 479.36C538.048 470.08 525.888 464.064 512 464.064 485.44 464.064 464.064 485.44 464.064 512c0 26.496 21.376 48.064 47.936 48.064 23.744 0 42.496-17.6 46.4-40.256l329.728-88C893.632 457.664 896.64 484.48 896.64 512 896.64 724.48 724.416 896.768 511.936 896.768z" p-id="8056"></path></svg>