<?xml version="1.0" standalone="no"?><!DOCTYPE svg PUBLIC "-//W3C//DTD SVG 1.1//EN" "http://www.w3.org/Graphics/SVG/1.1/DTD/svg11.dtd"><svg t="1555136058898" class="icon" style="" viewBox="0 0 1024 1024" version="1.1" xmlns="http://www.w3.org/2000/svg" p-id="1880" xmlns:xlink="http://www.w3.org/1999/xlink" width="200" height="200"><defs><style type="text/css"></style></defs><path d="M605.866667 712.533333A176.896 176.896 0 0 0 597.333333 768c0 47.240533 16.503467 87.313067 49.493334 120.32 32.494933 32.512 71.4752 49.322667 116.906666 50.346667H85.333333v-93.013334c9.659733-13.653333 23.04-29.013333 40.106667-46.08 62.0032-62.0032 133.973333-100.6592 215.893333-116.053333V591.36a176.366933 176.366933 0 0 1-34.986666-27.3408c-33.006933-33.006933-49.493333-72.823467-49.493334-119.466667L256 442.026667c-4.5568-0.5632-7.68-1.706667-9.386667-3.413334-1.706667-3.413333-3.140267-6.5536-4.266666-9.386666l-1.706667-11.093334-5.973333-30.72-0.853334-2.56c-2.286933-17.066667 3.413333-26.7264 17.066667-29.013333h5.973333L256 171.52c-2.850133-61.44 25.890133-90.1632 86.186667-86.186667h60.586666c15.36 2.850133 23.6032 13.653333 24.746667 32.426667v11.093333h128l42.666667 42.666667v184.32h5.973333c13.090133 1.706667 19.029333 9.096533 17.92 22.186667L614.4 418.133333l-2.56 11.093334a103.424 103.424 0 0 1-4.266667 9.386666c-1.109333 1.706667-4.266667 2.850133-9.386666 3.413334 0 15.36-1.416533 29.303467-4.266667 41.813333-6.8096 29.576533-22.186667 56.32-46.08 80.213333-9.096533 9.659733-21.026133 19.063467-35.84 28.16V682.666667a395.434667 395.434667 0 0 1 93.866667 29.866666z" p-id="1881"></path><path d="M768 955.733333h-4.6592c-49.783467-1.160533-93.0304-19.797333-128.5632-55.3472C598.596267 864.221867 580.266667 819.677867 580.266667 768c0-21.3504 3.157333-41.796267 9.386666-60.791467 8.891733-26.692267 24.029867-51.012267 45.021867-72.3456C671.556267 598.562133 716.3392 580.266667 768 580.266667c51.677867 0 96.221867 18.3296 132.386133 54.493866C937.1136 671.453867 955.733333 716.288 955.733333 768c0 51.746133-18.653867 96.341333-55.4496 132.488533C864.341333 937.079467 819.746133 955.733333 768 955.733333z m-4.061867-34.133333H768c42.8544 0 78.2336-14.7968 108.151467-45.243733C906.8032 846.2336 921.6 810.8544 921.6 768c0-42.939733-14.830933-78.609067-45.346133-109.1072C846.301867 628.957867 810.9056 614.4 768 614.4c-42.990933 0-78.6944 14.574933-109.192533 44.5952-17.1008 17.390933-29.525333 37.290667-36.727467 58.9312A159.778133 159.778133 0 0 0 614.4 768c0 42.9056 14.557867 78.301867 44.4928 108.253867 29.4912 29.4912 63.863467 44.322133 105.045333 45.346133zM768 871.253333a17.066667 17.066667 0 0 1-17.066667-17.066666v-68.266667h-68.266666a17.066667 17.066667 0 1 1 0-34.133333h68.266666v-68.266667a17.066667 17.066667 0 1 1 34.133334 0v68.266667h68.266666a17.066667 17.066667 0 1 1 0 34.133333h-68.266666v68.266667a17.066667 17.066667 0 0 1-17.066667 17.066666z" p-id="1882"></path></svg>